# xmcd
#
# Track frame offsets: 
#        150
#        14268
#        27736
#        42320
#        55289
#        68692
#        82261
#        96485
#        109696
#        123647
#        136875
#        152685
#        168043
#        181452
#        197633
#        212746
#        226201
#        239474
#        253970
#        267295
#        282092
#
# Disc length: 3947 seconds
#
# Revision: 0
# Processed by: cddbd v1.5.2PL0 Copyright (c) Steve Scherf et al.
# Submitted via: ExactAudioCopyFreeDBPlugin 1.0
#
DISCID=330f6915
DTITLE=Clara Smith - Complete Recorded Works Vol. 2: 1924
DYEAR=1995
DGENRE=Blues
TTITLE0=My Doggone Lazy Man
TTITLE1=Chicago Blues
TTITLE2=31st Street Blues
TTITLE3=War Horse Mama (Pig Meat Sweetie)
TTITLE4=Cold Weather Papa
TTITLE5=West Indies Blues
TTITLE6=Mean Papa Turn Your Key
TTITLE7=The Clearing House Blues
TTITLE8=Don't Advertise Your Man
TTITLE9=Back Woods Blues
TTITLE10=Deep Blue Sea Blues
TTITLE11=Texas Moaner Blues
TTITLE12=The Basement Blues
TTITLE13=Mama's Gone, Good Bye
TTITLE14=Freight Train Blues
TTITLE15=Done Sold My Soul to the Devil (And My Heart's Done Turned to
TTITLE15=Stone)
TTITLE16=San Francisco Blues
TTITLE17=Death Letter Blues
TTITLE18=Prescription for the Blues
TTITLE19=Steel Drivin' Man
TTITLE20=He's Mine, All Mine
EXTD=
EXTT0=
EXTT1=
EXTT2=
EXTT3=
EXTT4=
EXTT5=
EXTT6=
EXTT7=
EXTT8=
EXTT9=
EXTT10=
EXTT11=
EXTT12=
EXTT13=
EXTT14=
EXTT15=
EXTT16=
EXTT17=
EXTT18=
EXTT19=
EXTT20=
PLAYORDER=
